<svg xmlns="http://www.w3.org/2000/svg" viewBox="0 0 100 100"><title>decisionmakers</title><g id="decisionmakers"><path d="M50 90.74A40.74 40.74 0 1 0 9.27 50 40.73 40.73 0 0 0 50 90.74" fill="none" stroke="#00569a" stroke-miterlimit="10" stroke-width="2.3"/><g opacity=".3" fill="#444e69"><path d="M25.55 71.86h48.91v3.17H25.55z"/><path d="M28 43.96h3.17v29.49H28zM38.21 43.96h3.17v29.49h-3.17zM48.41 43.96h3.17v29.49h-3.17zM68.83 43.96H72v29.49h-3.17zM58.62 43.96h3.17v29.49h-3.17zM28.83 34.68L50 24.42l21.17 10.26v2.15H28.83zM27.25 40h45.5a1.59 1.59 0 0 0 1.59-1.59v-4.73a1.57 1.57 0 0 0-.9-1.42l-22.75-11a1.59 1.59 0 0 0-1.38 0l-22.75 11a1.57 1.57 0 0 0-.9 1.42v4.73A1.59 1.59 0 0 0 27.25 40"/></g><g fill="#fff" stroke="#00569a" stroke-miterlimit="10" stroke-width="2.12"><path d="M55.93 63.72a3.26 3.26 0 0 0 3.38-3.39V50.1c0-3.35-6.14-5.1-9.31-5.1s-9.31 1.72-9.31 5.07v10.26a3.26 3.26 0 0 0 3.38 3.39zM50 42.48a4.26 4.26 0 0 0 4.23-4.32v-1.44a4.23 4.23 0 1 0-8.46 0v1.44A4.26 4.26 0 0 0 50 42.48z"/></g></g></svg>