<svg xmlns="http://www.w3.org/2000/svg" viewBox="0 0 100 100"><title>diversity</title><g id="diversity" stroke="#00569a" stroke-miterlimit="10" stroke-width="2.3"><path d="M50 90.74A40.74 40.74 0 1 0 9.27 50 40.73 40.73 0 0 0 50 90.74" fill="none"/><g fill="#d6d8dd"><path d="M68.06 48.64a26.64 26.64 0 0 0 10-2v-3c0-1.63-5.5-4-10-4s-10 2.37-10 4v3a26.6 26.6 0 0 0 10 2zM68.06 25.64a5 5 0 0 0-5 4.68V34a5 5 0 0 0 10 0v-3.68a5 5 0 0 0-5-4.68z"/></g><g fill="#fff"><path d="M50.06 76.64a26.64 26.64 0 0 0 10-2v-3c0-1.63-5.5-4-10-4s-10 2.37-10 4v3a26.6 26.6 0 0 0 10 2zM50.06 53.64a5 5 0 0 0-5 4.68V62a5 5 0 0 0 10 0v-3.68a5 5 0 0 0-5-4.68z"/></g><g fill="#9da1af"><path d="M32.06 48.64a26.64 26.64 0 0 0 10-2v-3c0-1.63-5.5-4-10-4s-10 2.37-10 4v3a26.6 26.6 0 0 0 10 2zM32.06 25.64a5 5 0 0 0-5 4.68V34a5 5 0 0 0 10 0v-3.68a5 5 0 0 0-5-4.68z"/></g></g></svg>