<svg xmlns="http://www.w3.org/2000/svg" viewBox="-210.7 434.3 300 185.1"><g transform="translate(8.858 8.858)"><g id="circle" fill="#2A529E"><path d="M21.5 584.8c-17.1 13.9-38.8 21.6-61.1 21.6-22.8 0-44.9-8-62.2-22.6l-2.8 3.2c18.1 15.2 41.2 23.6 65.1 23.6 23.4 0 46-8 63.9-22.6l-2.9-3.2"/><path d="M20.7 583.8c-16.9 13.7-38.2 21.3-60.3 21.3-25.1 0-48.8-9.6-66.6-27-17.8-17.4-27.6-40.5-27.6-65 0-19 5.9-37.2 17-52.7 10.9-15.1 25.9-26.6 43.5-33.2l-.6-1.7c-18 6.7-33.3 18.4-44.4 33.9-11.4 15.8-17.3 34.4-17.3 53.8 0 25.1 10 48.6 28.1 66.3 18.1 17.7 42.3 27.5 67.9 27.5 22.5 0 44.3-7.7 61.5-21.8l-1.2-1.4"/></g><g id="forum" fill="#231F20"><path d="M-7.2 540.8l-5.6 21.5h-5.6l9.7-35.8 12 25.9 12-25.9 9.6 35.8h-5.6L14 540.8h-.1L3.4 563l-10.6-22.2M-55.1 549.6v-21.7h5.6v20.7c0 4.8 1.6 9.3 7.8 9.3 6.2 0 7.8-4.5 7.8-9.3v-20.7h5.6v21.7c0 7.5-4.8 13.4-13.4 13.4-8.7 0-13.4-5.9-13.4-13.4M-73.1 562.2l-10.4-14.5h-3.8v14.5h-5.6v-34.3h9.3c3.1 0 6.7 0 9.6 1.6 3 1.7 4.6 4.9 4.6 8.2 0 4.9-3.4 9-8.4 9.6l11.1 14.9h-6.4m-14.2-19h2.7c4.5 0 9.8.1 9.8-5.4 0-5.3-5.7-5.2-10-5.2h-2.4l-.1 10.6M-120 557.4c5.7-1.5 9.4-6.5 9.4-12.4 0-6.7-4.6-12.8-12.9-12.8-2.3 0-4.3.5-6 1.4-.4-1.7-.7-3.4-1.1-5.1 2.2-.8 4.6-1.4 7.1-1.4 10.1 0 18.4 8 18.4 17.8 0 8-5.1 14.5-12.2 16.9-.9-1.4-1.9-2.8-2.7-4.4M-141.9 545c0-6 3.2-11.4 7.9-14.6.4 1.9.8 3.7 1.2 5.5-2.3 2.4-3.5 5.7-3.5 9.1 0 6.9 4.9 12.5 12.2 12.9.9 1.7 1.9 3.3 3 4.9-.8.1-1.6.2-2.4.2-10.1-.1-18.4-7.8-18.4-18M-169.9 562.2v-34.3h18.2v5h-12.6v8.2h12.2v5h-12.2v16.2l-5.6-.1"/></g><g id="economic" fill="#231F20"><path d="M52.8 498.3c0-9.8 8.3-17.9 18.4-17.9 3.3 0 6.4.9 9.2 2.4l-2.9 4.1c-1.7-.9-3.8-1.5-6.3-1.5-8.3 0-12.8 6.1-12.8 12.9 0 7.1 5.2 12.9 12.8 12.9 2.3 0 4.5-.6 6.3-1.5l3 4.2c-2.7 1.5-5.8 2.3-9.2 2.3-10.2-.1-18.5-7.8-18.5-17.9M34.3 515.5h5.6v-34.4h-5.6v34.4zM-10.3 494l-5.6 21.5h-5.6l9.6-35.8L.2 505.5l12-25.8 9.6 35.8h-5.6L10.8 494h-.1L.3 516.2-10.3 494M-65.5 498.3c0-9.8 8.4-17.9 18.4-17.9 10.1 0 18.4 8.1 18.4 17.9 0 10.2-8.3 17.9-18.4 17.9-10.2-.1-18.4-7.8-18.4-17.9m5.6 0c0 7.1 5.2 12.9 12.8 12.9 7.6 0 12.8-5.8 12.8-12.9 0-6.7-4.5-12.9-12.8-12.9s-12.8 6.1-12.8 12.9M-101 492.8v22.7h-5.6v-36.2l23.6 24.1V481h5.6v35.7l-23.6-23.9M-123.8 498.2c0 5.4-3.1 10.1-8 12v5.4c7.8-2 13.6-8.8 13.6-17.3 0-6.3-3.4-11.8-8.4-15-.6 1.6-1.1 3.3-1.6 5 2.8 2.3 4.4 6 4.4 9.9M-155 498.3c0-9.9 8.3-17.9 18.4-17.9 2.3 0 4.6.5 6.6 1.3-.6 1.5-1.1 3.1-1.5 4.7-1.5-.6-3.2-.9-5.1-.9-8.3 0-12.9 6.1-12.9 12.9 0 7 5.2 12.8 12.9 12.8h1.1v5.1h-1.1c-10.2-.2-18.4-7.9-18.4-18M-188.7 498.3c0-9.8 8.3-17.9 18.4-17.9 3.3 0 6.4.9 9.1 2.4l-2.8 4.1c-1.8-.9-3.9-1.5-6.3-1.5-8.3 0-12.9 6.1-12.9 12.9 0 7.1 5.2 12.9 12.9 12.9 2.3 0 4.4-.6 6.3-1.5l3 4.2c-2.7 1.5-5.8 2.3-9.2 2.3-10.3-.1-18.5-7.8-18.5-17.9M-219.6 515.5v-34.4h20.1v5H-214v8.1h14.1v5H-214v11.4h14.5v5l-20.1-.1"/></g><g id="world" fill="#231F20"><path d="M-4.1 468.8v-34.3h9.4c10.8 0 19.8 5.4 19.8 17 0 11.9-8.8 17.3-19.9 17.3h-9.3m5.6-4.8h3.3c7.5 0 14.6-2.7 14.6-12.5 0-9.9-7.1-12.3-14.6-12.3H1.5V464M-35.1 468.8v-34.3h5.6V464h15.4v4.8h-21M-53.9 468.8l-10.3-14.5H-68v14.5h-5.6v-34.3h9.3c3.1 0 6.8 0 9.6 1.6 3 1.7 4.6 5 4.6 8.2 0 4.9-3.4 9-8.4 9.6l11.1 15-6.5-.1m-14.1-19h2.6c4.5 0 9.8 0 9.8-5.4s-5.7-5.3-10-5.3H-68v10.7M-117.1 464.1c.6-.9 1.2-1.8 1.9-2.7.4-.6.8-1.1 1.3-1.7 2.2 2.9 5.8 4.8 10.1 4.8 7.6 0 12.8-5.8 12.8-12.9 0-4-1.6-7.8-4.6-10.2l4.2-3c3.7 3.3 6 7.9 6 13.1 0 10.2-8.3 17.9-18.4 17.9-5.2.1-9.9-1.9-13.3-5.3M-122.2 451.6c0-9.8 8.4-17.9 18.4-17.9 3.4 0 6.5.9 9.3 2.5-1.6 1.1-3.1 2.2-4.6 3.4-1.4-.5-3-.8-4.7-.8-8.3 0-12.9 6.1-12.9 12.9 0 1.6.3 3.1.8 4.6-.8 1-1.6 2.1-2.4 3.2-.4.6-.8 1.2-1.3 1.8-1.6-2.9-2.6-6.1-2.6-9.7M-152.1 444.4l-12.1 25.8-9.6-35.8h5.6l5.5 21.5h.1l10.5-22.2 10.5 22.2h.1l5.5-21.5h5.6l-9.6 35.8-12.1-25.8"/></g></g></svg>