<svg xmlns="http://www.w3.org/2000/svg" viewBox="0 0 100 100"><title>mentor</title><g id="mentor"><path d="M50 90.74A40.74 40.74 0 1 0 9.27 50 40.73 40.73 0 0 0 50 90.74" fill="none" stroke="#00569a" stroke-miterlimit="10" stroke-width="2.3"/><g fill="#fff" stroke="#00569a" stroke-miterlimit="10" stroke-width="2.12"><path d="M39.93 62.83a3.26 3.26 0 0 0 3.39-3.38V49.22c0-3.35-6.14-5.08-9.31-5.08s-9.31 1.73-9.31 5.08v10.23a3.26 3.26 0 0 0 3.38 3.38zM34 41.59a4.26 4.26 0 0 0 4.23-4.32v-1.44a4.24 4.24 0 1 0-8.47 0v1.44A4.26 4.26 0 0 0 34 41.59z"/><g><path d="M70.69 62.83a3.26 3.26 0 0 0 3.39-3.38V49.22c0-3.35-6.14-5.08-9.31-5.08s-9.31 1.73-9.31 5.08v10.23a3.26 3.26 0 0 0 3.38 3.38zM64.77 41.59A4.26 4.26 0 0 0 69 37.27v-1.44a4.23 4.23 0 1 0-8.46 0v1.44a4.26 4.26 0 0 0 4.23 4.32z"/></g></g><path d="M51 53.62h2m8 5l5-5-5-5m-6 5h10M47.67 53.62h-2m-8-5l-5 5 5 5m6-5h-10" fill="none" stroke="#002b5c" stroke-miterlimit="10" stroke-width="2.3" opacity=".3"/></g></svg>