<svg xmlns="http://www.w3.org/2000/svg" viewBox="0 0 100 100"><title>minharm</title><g id="minharm"><path d="M50 90.74A40.74 40.74 0 1 0 9.27 50 40.73 40.73 0 0 0 50 90.74" fill="none" stroke="#00569a" stroke-miterlimit="10" stroke-width="2.3"/><g fill="#fff" stroke="#00569a" stroke-miterlimit="10" stroke-width="2.12"><path d="M49.18 59a3.26 3.26 0 0 0 3.39-3.38V45.43c0-3.35-6.14-5.08-9.31-5.08S34 42.08 34 45.43v10.23A3.26 3.26 0 0 0 37.33 59zM43.26 37.8a4.26 4.26 0 0 0 4.23-4.31v-1.44a4.23 4.23 0 1 0-8.46 0v1.44a4.26 4.26 0 0 0 4.23 4.31z"/></g><path d="M69.17 50.26c-.23 11.11-2.73 19.52-12.65 24.53-9.91-5-12.41-13.43-12.64-24.53a8.8 8.8 0 0 0 4.23-5.83 43.52 43.52 0 0 1 16.83 0 8.77 8.77 0 0 0 4.23 5.83" fill="#444e69" opacity=".3"/></g></svg>