<svg xmlns="http://www.w3.org/2000/svg" viewBox="0 0 100 100"><title>public</title><g id="public" stroke="#00569a" stroke-miterlimit="10"><path d="M90.74 50c0 22.19-18.24 40.17-40.74 40.17S9.26 72.19 9.26 50 27.5 9.83 50 9.83 90.74 27.82 90.74 50" fill="none" stroke-width="2.3"/><g fill="#fff" stroke-width="2.12"><path d="M55.93 60.57a3.26 3.26 0 0 0 3.38-3.38V47c0-3.35-6.14-5.08-9.31-5.08s-9.31 1.69-9.31 5.08v10.19a3.26 3.26 0 0 0 3.39 3.38zM50 39.33A4.26 4.26 0 0 0 54.23 35v-1.43a4.23 4.23 0 1 0-8.46 0V35A4.26 4.26 0 0 0 50 39.33z"/></g><g fill="#fff" stroke-width="2.12"><path d="M33.83 60.57a3.26 3.26 0 0 0 3.38-3.38V47c0-3.35-6.14-5.08-9.31-5.08s-9.31 1.69-9.31 5.08v10.19A3.26 3.26 0 0 0 22 60.57zM27.9 39.33A4.26 4.26 0 0 0 32.13 35v-1.43a4.23 4.23 0 1 0-8.46 0V35a4.26 4.26 0 0 0 4.23 4.33z"/></g><g fill="#fff" stroke-width="2.12"><path d="M78 60.57a3.26 3.26 0 0 0 3.38-3.38V47c0-3.35-6.14-5.08-9.31-5.08s-9.28 1.69-9.28 5.08v10.19a3.26 3.26 0 0 0 3.38 3.38zM72.1 39.33A4.26 4.26 0 0 0 76.33 35v-1.43a4.23 4.23 0 1 0-8.46 0V35a4.26 4.26 0 0 0 4.23 4.33z"/></g><g fill="#fff" stroke-width="1.71"><path d="M65.34 71.43a2.63 2.63 0 0 0 2.73-2.73v-8.24c0-2.7-4.95-4.09-7.5-4.09s-7.51 1.39-7.51 4.09v8.24a2.63 2.63 0 0 0 2.73 2.73zM60.56 56.31A3.44 3.44 0 0 0 64 52.83v-1.16a3.42 3.42 0 1 0-6.83 0v1.16a3.44 3.44 0 0 0 3.39 3.48z"/></g><g fill="#fff" stroke-width="1.71"><path d="M44.21 71.43a2.63 2.63 0 0 0 2.73-2.73v-8.24c0-2.7-4.95-4.09-7.5-4.09s-7.51 1.39-7.51 4.09v8.24a2.63 2.63 0 0 0 2.73 2.73zM39.44 56.31a3.44 3.44 0 0 0 3.41-3.48v-1.16a3.42 3.42 0 1 0-6.83 0v1.16a3.44 3.44 0 0 0 3.42 3.48z"/></g></g></svg>