<svg xmlns="http://www.w3.org/2000/svg" viewBox="0 0 100 100"><defs><clipPath id="clip-path"><path id="SVGID" fill="none" d="M16.8 26.55h54.88v43.54H16.8z"/></clipPath></defs><title>truth</title><g id="truth"><path d="M50 90.74A40.74 40.74 0 1 0 9.27 50 40.73 40.73 0 0 0 50 90.74" fill="none" stroke="#00569a" stroke-miterlimit="10" stroke-width="2.3"/><g clip-path="url(#clip-path)" opacity=".3"><path d="M70.78 26.55a97.22 97.22 0 0 0-22.29 13.22 81.59 81.59 0 0 0-17 17.5s-.21-2.85-3.2-6.13-5.83-3.57-5.83-3.57l-5.66 4.92s5.08.42 9.52 6.56a51.71 51.71 0 0 1 5.66 11A92.48 92.48 0 0 1 51 44.85 163.31 163.31 0 0 1 71.67 28.6z" fill="#444e69"/></g><g fill="#fff" stroke="#00569a" stroke-miterlimit="10" stroke-width="2.12"><path d="M55.93 63.72a3.26 3.26 0 0 0 3.38-3.39V50.1c0-3.35-6.14-5.1-9.31-5.1s-9.31 1.72-9.31 5.07v10.26a3.26 3.26 0 0 0 3.38 3.39zM50 42.48a4.26 4.26 0 0 0 4.23-4.32v-1.44a4.23 4.23 0 1 0-8.46 0v1.44A4.26 4.26 0 0 0 50 42.48z"/></g></g></svg>