<svg xmlns="http://www.w3.org/2000/svg" viewBox="0 0 100 100"><title>accountable</title><g id="accountable" stroke-miterlimit="10"><path d="M50 90.47A40.47 40.47 0 1 0 9.53 50 40.47 40.47 0 0 0 50 90.47" fill="none" stroke="#00569a" stroke-width="2.3"/><g opacity=".3" fill="none" stroke="#444e69" stroke-width="2.3"><path d="M51.69 74c13.3 0 22.4-10.59 22.4-23.65a23.09 23.09 0 0 0-1.67-8.65"/><path d="M57.09 79.03l-5.4-5.02 5.4-5.03"/><g><path d="M66.38 32.78C62 28.11 56.91 26.43 50 26.43a24.09 24.09 0 0 0-7.29 47.05"/><path d="M66.33 25.4l.05 7.38-7.36-.49"/></g></g><g fill="#fff" stroke="#00569a" stroke-width="2.12"><path d="M55.92 63.71a3.26 3.26 0 0 0 3.39-3.38V50.1c0-3.35-6.14-5.1-9.31-5.1s-9.31 1.73-9.31 5.08v10.25a3.26 3.26 0 0 0 3.38 3.38zM50 42.47a4.26 4.26 0 0 0 4.23-4.31v-1.44a4.23 4.23 0 1 0-8.46 0v1.44A4.26 4.26 0 0 0 50 42.47z"/></g></g></svg>